<svg width="165" height="30" viewBox="0 0 165 30" fill="none" xmlns="http://www.w3.org/2000/svg">
<path d="M28.7351 0.846633C25.1515 1.40116 21.6782 2.2905 18.3476 3.48152C15.5157 2.46895 12.5806 1.67436 9.5625 1.11808C12.9308 0.497292 16.4018 0.172363 19.9494 0.172363C22.9373 0.172363 25.8718 0.403126 28.7351 0.846633Z" fill="#4ED963"/>
<path d="M67.3161 25.4834H46.5412C44.2945 22.1353 41.7038 19.0383 38.8203 16.2424C41.9573 13.2012 45.4422 10.5181 49.2078 8.25928C56.4357 12.5967 62.6255 18.4925 67.3161 25.4834Z" fill="#4ED963"/>
<path d="M58.3596 1.11908C56.5862 1.44576 54.8424 1.8544 53.1311 2.34268C50.0918 3.20646 47.1551 4.31845 44.346 5.65307C40.6479 7.41028 37.1673 9.55404 33.9592 12.032C29.077 15.8028 24.8221 20.3478 21.3757 25.4846H0.601562C6.31369 16.9718 14.2486 10.0824 23.573 5.65307C26.8727 4.08536 30.347 2.82572 33.9592 1.91137C36.8089 1.19 39.7427 0.683123 42.7443 0.409921C44.4661 0.253556 46.2099 0.17334 47.9728 0.17334C51.5201 0.17334 54.992 0.498275 58.3596 1.11908Z" fill="#4ED963"/>
<path d="M87.7134 7.8877C88.8135 7.8877 89.7565 7.99407 90.5435 8.20623C91.33 8.41897 91.976 8.7253 92.4812 9.12521C92.9863 9.52571 93.3592 10.0093 93.5999 10.5772C93.84 11.1451 93.9606 11.788 93.9606 12.507C93.9606 12.9319 93.8951 13.34 93.7652 13.7323C93.6347 14.1241 93.4352 14.4903 93.1661 14.8286C92.897 15.1675 92.5589 15.4721 92.1512 15.7412C91.7435 16.0109 91.2627 16.2353 90.7088 16.4149C93.2594 16.9212 94.5348 18.2569 94.5348 20.421C94.5348 21.1726 94.3961 21.8567 94.1189 22.4734C93.8417 23.0902 93.4386 23.6232 92.9086 24.0725C92.3785 24.5218 91.7266 24.8688 90.9524 25.1141C90.1782 25.3594 89.2978 25.4815 88.3119 25.4815H81.9922V7.8877H87.7134ZM84.5967 9.93376V15.6924H87.5916C88.871 15.6924 89.8227 15.4331 90.4461 14.9146C91.0696 14.3961 91.3816 13.6957 91.3816 12.8134C91.3816 11.8089 91.0841 11.0777 90.489 10.6202C89.894 10.1628 88.969 9.93434 87.714 9.93434H84.5967V9.93376ZM88.2638 23.411C88.9237 23.411 89.488 23.3337 89.9566 23.1785C90.4252 23.0233 90.808 22.8111 91.1055 22.5414C91.403 22.2717 91.6211 21.9515 91.7597 21.5794C91.8983 21.208 91.9673 20.8017 91.9673 20.3605C91.9673 19.4863 91.6657 18.7981 91.0626 18.2959C90.4594 17.7936 89.5263 17.5425 88.2632 17.5425H84.5962V23.411H88.2632H88.2638Z" fill="#0D0D0D"/>
<path d="M99.3903 15.4228C99.7893 14.6061 100.271 13.965 100.833 13.4994C101.395 13.0338 102.071 12.8013 102.862 12.8013C103.131 12.8013 103.386 12.8321 103.626 12.8931C103.866 12.9541 104.076 13.046 104.255 13.1686L104.097 14.97C104.039 15.1903 103.905 15.3007 103.693 15.3007C103.579 15.3007 103.408 15.278 103.18 15.2333C102.951 15.1885 102.707 15.1659 102.446 15.1659C102.063 15.1659 101.725 15.2211 101.431 15.3315C101.138 15.442 100.875 15.6053 100.643 15.8215C100.411 16.0378 100.204 16.3034 100.025 16.6179C99.8461 16.9323 99.6791 17.2898 99.5242 17.6897V25.4822H97.1406V13.0344H98.5099C98.7709 13.0344 98.9477 13.0814 99.0417 13.175C99.1351 13.2692 99.2023 13.4343 99.2435 13.6714L99.3903 15.4234V15.4228Z" fill="#0D0D0D"/>
<path d="M109.031 9.49794C109.031 9.71824 108.986 9.92866 108.896 10.1292C108.806 10.3292 108.686 10.5053 108.535 10.6558C108.384 10.807 108.207 10.9255 108.003 11.011C107.8 11.097 107.588 11.1394 107.368 11.1394C107.148 11.1394 106.94 11.0964 106.744 11.011C106.549 10.925 106.375 10.807 106.225 10.6558C106.074 10.5047 105.956 10.3292 105.87 10.1292C105.785 9.92924 105.742 9.71883 105.742 9.49794C105.742 9.27706 105.785 9.05502 105.87 8.85448C105.956 8.65452 106.074 8.47898 106.225 8.32785C106.375 8.17672 106.549 8.05814 106.744 7.9727C106.94 7.88667 107.148 7.84424 107.368 7.84424C107.588 7.84424 107.8 7.88725 108.003 7.9727C108.207 8.05873 108.384 8.17672 108.535 8.32785C108.686 8.47898 108.806 8.65452 108.896 8.85448C108.985 9.05444 109.031 9.26892 109.031 9.49794ZM108.578 13.0344V25.4822H106.195V13.0344H108.578Z" fill="#0D0D0D"/>
<path d="M122.434 7.83252V25.4821H120.992C120.658 25.4821 120.449 25.3228 120.368 25.0043L120.161 23.5709C119.631 24.1998 119.03 24.5178 118.358 24.8974C117.685 25.2769 116.909 25.467 116.029 25.467C115.32 25.467 114.678 25.3281 114.104 25.0502C113.529 24.7724 113.038 24.3661 112.631 23.8313C112.223 23.2965 111.909 22.8193 111.689 22.0271C111.47 21.2348 111.359 20.3239 111.359 19.2951C111.359 18.3721 111.482 17.5147 111.726 16.7224C111.971 15.9302 112.325 15.2443 112.79 14.6642C113.254 14.084 113.817 13.6289 114.477 13.2982C115.137 12.9674 115.882 12.8018 116.713 12.8018C117.463 12.8018 118.101 12.9244 118.627 13.1691C119.152 13.4144 119.623 13.7614 120.038 14.2108V7.83252H122.434ZM120.038 16.0481C119.647 15.5337 119.225 15.1745 118.773 14.9699C118.321 14.7659 117.813 14.6636 117.251 14.6636C116.159 14.6636 115.313 15.0577 114.714 15.8459C114.115 16.6341 113.816 17.7838 113.816 19.2945C113.816 20.0868 113.883 20.7628 114.018 21.322C114.152 21.8817 114.348 22.3392 114.605 22.6944C114.862 23.0495 115.177 23.3111 115.552 23.4785C115.927 23.6459 116.351 23.7296 116.824 23.7296C117.516 23.7296 118.115 23.5744 118.621 23.264C119.126 22.9536 119.599 22.5165 120.039 21.9532V16.0476L120.038 16.0481Z" fill="#0D0D0D"/>
<path d="M136.367 13.376V14.2706C136.367 14.5647 136.184 14.7484 135.818 14.8222L134.485 15.0181C134.599 15.2715 134.688 15.5389 134.754 15.8208C134.819 16.1027 134.852 16.3986 134.852 16.709C134.852 17.3217 134.734 17.875 134.498 18.3691C134.261 18.8632 133.935 19.2863 133.52 19.6374C133.104 19.9885 132.609 20.2582 132.035 20.446C131.46 20.6337 130.831 20.7279 130.146 20.7279C129.583 20.7279 129.058 20.6669 128.569 20.5442C128.324 20.6913 128.139 20.8529 128.013 21.0284C127.886 21.2039 127.823 21.3777 127.823 21.5492C127.823 21.8352 127.943 22.0474 128.184 22.1863C128.424 22.3252 128.738 22.4252 129.125 22.4862C129.512 22.5473 129.956 22.5862 130.458 22.6025C130.959 22.6188 131.468 22.6455 131.986 22.6821C132.503 22.7187 133.013 22.7844 133.514 22.878C134.015 22.9722 134.459 23.1233 134.847 23.3314C135.234 23.5395 135.547 23.8255 135.788 24.1888C136.028 24.552 136.149 25.024 136.149 25.6036C136.149 26.1424 136.016 26.6655 135.751 27.1718C135.486 27.6781 135.101 28.1274 134.596 28.5198C134.091 28.9121 133.476 29.226 132.75 29.4632C132.025 29.6997 131.202 29.8183 130.281 29.8183C129.36 29.8183 128.559 29.7282 127.879 29.5486C127.198 29.369 126.632 29.1278 126.179 28.8255C125.727 28.5233 125.389 28.1722 125.164 27.7717C124.94 27.3712 124.828 26.955 124.828 26.522C124.828 25.9174 125.015 25.4048 125.391 24.9845C125.765 24.5637 126.283 24.2353 126.943 23.9981C126.584 23.8348 126.299 23.6121 126.088 23.3302C125.876 23.0483 125.77 22.6746 125.77 22.209C125.77 22.0293 125.802 21.8433 125.868 21.6515C125.933 21.4597 126.033 21.2679 126.167 21.0755C126.302 20.8837 126.469 20.7017 126.668 20.5303C126.868 20.3588 127.098 20.2036 127.359 20.0647C126.748 19.7217 126.267 19.2666 125.917 18.6987C125.566 18.1308 125.391 17.4676 125.391 16.7078C125.391 16.0952 125.51 15.5442 125.746 15.0536C125.982 14.5636 126.31 14.1427 126.73 13.7916C127.15 13.4405 127.651 13.1708 128.234 12.9831C128.816 12.7953 129.454 12.7012 130.147 12.7012C131.223 12.7012 132.148 12.9261 132.922 13.3749H136.369L136.367 13.376ZM133.947 26.0075C133.947 25.7134 133.865 25.4786 133.703 25.303C133.54 25.1275 133.317 24.9886 133.036 24.8863C132.755 24.784 132.427 24.7107 132.052 24.666C131.677 24.6212 131.284 24.5863 130.872 24.5619C130.461 24.5375 130.039 24.5148 129.607 24.4945C129.175 24.4742 128.759 24.4352 128.36 24.3782C127.936 24.591 127.588 24.8479 127.315 25.1502C127.042 25.4524 126.905 25.8076 126.905 26.2162C126.905 26.4778 126.973 26.7225 127.107 26.9515C127.242 27.18 127.449 27.3782 127.731 27.5456C128.012 27.713 128.366 27.8438 128.794 27.9379C129.222 28.0315 129.733 28.0786 130.328 28.0786C130.923 28.0786 131.433 28.0274 131.881 27.9257C132.329 27.8234 132.706 27.6804 133.012 27.4967C133.317 27.3131 133.549 27.0945 133.708 26.8411C133.867 26.5876 133.947 26.3098 133.947 26.0081L133.947 26.0075ZM130.145 19.1468C130.569 19.1468 130.941 19.0899 131.264 18.9754C131.586 18.8609 131.855 18.6998 132.071 18.4912C132.286 18.2831 132.449 18.032 132.559 17.7379C132.67 17.4437 132.725 17.1211 132.725 16.77C132.725 16.0516 132.507 15.4773 132.071 15.0489C131.634 14.6199 130.992 14.4054 130.145 14.4054C129.298 14.4054 128.668 14.6199 128.232 15.0489C127.796 15.4779 127.578 16.0516 127.578 16.77C127.578 17.1211 127.633 17.442 127.742 17.732C127.853 18.0221 128.016 18.2709 128.231 18.4795C128.447 18.6876 128.716 18.8516 129.038 18.9696C129.36 19.0881 129.729 19.1474 130.145 19.1474L130.145 19.1468Z" fill="#0D0D0D"/>
<path d="M148.537 23.5807C148.244 23.9237 147.905 24.2201 147.522 24.4689C147.139 24.7183 146.732 24.9206 146.3 25.0752C145.868 25.2304 145.422 25.3449 144.961 25.4181C144.501 25.4914 144.046 25.5286 143.598 25.5286C142.743 25.5286 141.95 25.3833 141.22 25.0938C140.491 24.8037 139.859 24.3794 139.326 23.8196C138.792 23.2605 138.376 22.5659 138.079 21.737C137.781 20.9081 137.633 19.9542 137.633 18.876C137.633 18.0105 137.767 17.2037 138.036 16.4562C138.306 15.7086 138.691 15.0576 139.192 14.5019C139.693 13.9468 140.306 13.5097 141.031 13.1912C141.756 12.8726 142.572 12.7134 143.476 12.7134C144.234 12.7134 144.933 12.8378 145.573 13.0871C146.213 13.3365 146.765 13.698 147.229 14.1712C147.694 14.6449 148.059 15.2291 148.323 15.9231C148.587 16.6177 148.72 17.41 148.72 18.2999C148.72 18.6673 148.68 18.9149 148.598 19.0411C148.516 19.1678 148.366 19.2311 148.146 19.2311H140.004C140.029 19.9746 140.135 20.6215 140.322 21.1731C140.509 21.7248 140.768 22.184 141.098 22.5513C141.428 22.9187 141.821 23.1925 142.278 23.3721C142.734 23.5517 143.243 23.6418 143.806 23.6418C144.335 23.6418 144.794 23.5807 145.181 23.4581C145.568 23.3355 145.902 23.2029 146.183 23.0599C146.464 22.9169 146.7 22.7844 146.892 22.6618C147.084 22.5391 147.253 22.4781 147.4 22.4781C147.595 22.4781 147.746 22.5513 147.852 22.6984L148.536 23.5807H148.537ZM146.569 17.7489C146.569 17.2752 146.501 16.838 146.367 16.4381C146.232 16.0382 146.035 15.6906 145.774 15.3965C145.513 15.1024 145.195 14.8739 144.821 14.7106C144.445 14.5473 144.014 14.4653 143.525 14.4653C142.523 14.4653 141.734 14.7554 141.159 15.3355C140.585 15.9156 140.22 16.7201 140.066 17.7489H146.569H146.569Z" fill="#0D0D0D"/>
<path d="M165.005 25.4815H162.426C162.238 25.4815 162.087 25.4303 161.973 25.3286C161.859 25.2263 161.77 25.1182 161.704 25.0037L157.169 17.7628C157.103 17.9669 157.026 18.1424 156.937 18.2895L152.524 25.0037C152.442 25.1182 152.349 25.2263 152.243 25.3286C152.137 25.4309 152.002 25.4815 151.839 25.4815H149.406L155.408 16.4271L149.663 7.8877H152.242C152.429 7.8877 152.568 7.91618 152.657 7.97372C152.747 8.03069 152.824 8.11671 152.889 8.23122L157.327 15.1291C157.392 14.917 157.481 14.7205 157.596 14.5409L161.752 8.28005C161.825 8.14927 161.907 8.05161 161.997 7.98593C162.086 7.92083 162.201 7.8877 162.339 7.8877H164.821L159.039 16.3172L165.004 25.4815H165.005Z" fill="#0D0D0D"/>
</svg>
