<svg width="167" height="38" viewBox="0 0 167 38" fill="none" xmlns="http://www.w3.org/2000/svg">
<path d="M101.49 6.57715H97.0991V11.2886H94.4655V15.4223H97.0991V26.2394C97.0991 27.3573 97.2391 28.2965 97.5176 29.0334C97.7932 29.7633 98.2117 30.3327 98.7127 30.7793C99.2178 31.23 99.814 31.5859 100.516 31.7827C101.232 31.9836 102.024 32.0618 102.858 32.0618C103.692 32.0618 104.492 31.9711 105.15 31.7952C105.761 31.6319 106.345 31.4017 106.892 31.1072V27.776C106.026 28.1486 105.216 28.284 104.292 28.3286C103.318 28.3733 102.739 28.0956 102.259 27.6406C101.758 27.1605 101.486 26.5381 101.486 25.4942V15.4237H106.889V11.29H101.486V6.57855H101.49V6.57715ZM87.6728 12.7554C85.8984 11.4561 83.7083 10.6899 81.3377 10.6899C75.4127 10.6899 70.6099 15.4795 70.6099 21.3884C70.6099 27.2973 75.4127 32.0869 81.3377 32.0869C83.7083 32.0869 85.8984 31.3207 87.6728 30.0215V31.5008H92.0641V11.2802H87.6728V12.7554ZM81.3377 27.6811C77.842 27.6811 75.0026 24.8536 75.0026 21.3633C75.0026 17.8729 77.8378 15.0455 81.3377 15.0455C84.8376 15.0455 87.6728 17.8729 87.6728 21.3633C87.6728 24.8536 84.8376 27.6811 81.3377 27.6811ZM57.2709 17.4222V22.2941H63.8774C63.5318 23.6869 62.8503 24.9332 61.8721 25.9324C60.3971 27.4354 58.3512 28.2644 56.1122 28.2644C51.4648 28.2644 47.685 24.495 47.685 19.8603C47.685 15.2255 51.4648 11.4561 56.1122 11.4561C58.6017 11.4561 60.8897 12.5167 62.4766 14.3491L66.2606 11.2677C63.7543 8.33837 60.0319 6.58412 56.1122 6.58412C48.7709 6.58412 42.7969 12.5418 42.7969 19.863C42.7969 27.1842 48.7709 33.142 56.1122 33.142C59.6778 33.142 62.9608 31.8594 65.365 29.413C67.3815 27.3601 68.7179 24.4922 68.9726 21.6201C69.1 20.2189 69.1084 18.8303 69.0342 17.4292H57.2723V17.4208L57.2709 17.4222ZM156.071 10.6704C150.146 10.6704 145.343 15.46 145.343 21.3689C145.343 27.2777 150.146 32.0674 156.071 32.0674C161.996 32.0674 166.799 27.2777 166.799 21.3689C166.799 15.46 161.996 10.6704 156.071 10.6704ZM156.071 27.6811C152.576 27.6811 149.74 24.8536 149.74 21.3675C149.74 17.8813 152.576 15.0539 156.071 15.0539C159.567 15.0539 162.402 17.8813 162.402 21.3675C162.402 24.8536 159.567 27.6811 156.071 27.6811ZM138.159 31.4924H142.883V13.3624H138.159V31.4924ZM130.939 31.4924H135.664V26.7809H130.939V31.4924ZM118.968 10.6704C113.042 10.6704 108.24 15.46 108.24 21.3689C108.24 27.2777 113.042 32.0674 118.968 32.0674C123.031 32.0674 126.568 29.8135 128.388 26.4906L124.424 24.5731C123.322 26.4334 121.293 27.6867 118.968 27.6867C116.03 27.6867 113.56 25.691 112.847 22.9877H125.09V22.9961H129.576C129.659 22.4672 129.7 21.9229 129.7 21.3731C129.695 15.4614 124.893 10.6704 118.968 10.6704ZM113.04 19.1387C113.944 16.7495 116.257 15.0497 118.968 15.0497C121.678 15.0497 123.993 16.7495 124.893 19.1387H113.04ZM138.159 11.2886H142.883V6.57715H138.159V11.2886Z" fill="black"/>
<path d="M19.4462 29.4439C13.6609 29.4439 8.96859 24.7645 8.96859 18.9952C8.96859 13.2259 13.6609 8.54652 19.4462 8.54652V0C8.928 0 0.398438 8.50605 0.398438 18.9952C0.398438 29.4844 8.928 37.9904 19.4462 37.9904C29.9643 37.9904 38.4939 29.4844 38.4939 18.9952H29.9238C29.9238 24.7645 25.2356 29.4439 19.4462 29.4439Z" fill="#2354E6"/>
<path d="M29.9229 8.54736H19.4453V18.9961H29.9229V8.54736Z" fill="#17E6A1"/>
</svg>
