<svg width="165" height="24" viewBox="0 0 165 24" fill="none" xmlns="http://www.w3.org/2000/svg">
<path fill-rule="evenodd" clip-rule="evenodd" d="M4.56946 23.8865H26.2394C27.5273 23.8865 28.5074 22.354 27.7657 21.2409L16.9445 2.39452C16.154 1.03082 14.6548 0.103516 12.9377 0.103516C11.1386 0.103516 9.55761 1.13992 8.79439 2.66727L0.562595 16.9588C-1.11371 19.9541 1.17174 23.8865 4.56946 23.8865Z" fill="#0043FF"/>
<path fill-rule="evenodd" clip-rule="evenodd" d="M21.6376 7.05979C20.3565 4.85059 21.1197 2.01409 23.3276 0.732208C25.5355 -0.549672 28.3702 0.214004 29.6514 2.4232L38.0195 16.9331C39.3006 19.1422 38.5373 21.9787 36.3294 23.2605C34.1215 24.5425 31.2868 23.7787 30.0056 21.5696L21.6376 7.05979Z" fill="#0043FF"/>
<path d="M150.139 6.14298C151.403 4.96317 153.62 4.40137 156.848 4.40137H164.4V0.103516H155.473C153.339 0.103516 151.542 0.328247 150.139 0.777695C148.763 1.22714 147.556 1.9294 146.517 2.91257C145.423 3.98001 144.553 5.30026 143.935 6.87332C143.317 8.47449 143.008 10.2161 143.008 12.042C143.008 13.7836 143.317 15.4691 143.935 17.014C144.553 18.559 145.423 19.9073 146.517 20.9748C147.528 21.958 148.735 22.6602 150.083 23.1097C151.458 23.5591 153.283 23.7839 155.473 23.7839H164.4V19.5422H156.848C155.136 19.5422 153.956 19.4859 153.283 19.3455C152.581 19.2051 151.936 18.9803 151.403 18.6433C150.335 17.9691 149.521 17.0983 148.988 16.0027C148.482 14.9353 148.23 13.5869 148.23 12.014C148.23 9.31721 148.876 7.32278 150.139 6.14298Z" fill="black"/>
<path d="M84.4141 23.8408H105.469V19.6834H89.5515V13.7562H103.448V9.82355H89.5515V4.31782H105.469V0.132324H84.4141V23.8408Z" fill="black"/>
<path d="M110.742 0.132324L120.596 11.9865L110.742 23.8408H117.115L124.892 14.4585V9.54265L117.115 0.132324H110.742Z" fill="black"/>
<path d="M134.651 0.132324L126.875 9.54265V14.4585L134.651 23.8408H141.024L131.141 11.9865L141.024 0.132324H134.651Z" fill="black"/>
<path d="M63.7676 11.818L54.3067 0.132324H49.4219V23.8408H54.5594V8.02578L62.7569 17.8575H64.7501L72.9475 7.94151V23.8408H78.085V0.132324H73.2564L63.7676 11.818Z" fill="black"/>
</svg>
