<svg width="165" height="32" viewBox="0 0 165 32" fill="none" xmlns="http://www.w3.org/2000/svg">
<path d="M46.1458 27.6274C45.6277 27.342 44.1091 26.8962 41.8401 28.0197C39.5533 29.161 35.3012 28.7865 32.0675 27.2172C28.8338 25.6478 27.601 23.1512 27.9941 23.1512C28.3871 23.1512 30.2988 25.2377 32.925 25.9867C35.5513 26.7178 38.6242 25.6835 39.4639 23.6505C40.3036 21.6175 40.9468 19.7985 41.8937 20.6367C42.8406 21.4748 42.2689 23.276 40.9111 25.0593C39.5533 26.8427 37.4272 27.128 38.9101 26.8962C40.393 26.6822 42.5547 25.1663 43.448 22.955C44.3413 20.7615 42.787 18.5145 40.6074 19.21C38.4277 19.9055 38.6064 23.4008 35.855 23.9358C33.1037 24.4708 30.531 21.5105 30.6025 21.2608C30.6561 21.0112 31.9246 21.7423 34.4258 21.4927C36.927 21.243 39.8034 20.3513 40.9111 16.749C42.0188 13.1466 39.0888 11.2206 37.0878 11.9875C35.0868 12.7543 35.4799 15.9286 36.7126 16.3031C37.9453 16.6955 38.1955 16.0713 37.9096 16.0891C37.6238 16.0891 37.2664 16.1426 36.8377 15.5898C36.4267 15.0548 36.5697 14.074 37.2664 13.4141C37.9632 12.7543 39.6783 13.2358 39.7677 14.5376C39.857 15.8395 39.4997 17.9438 36.8377 18.996C34.1757 20.0482 30.9777 18.9603 29.9057 17.4623C28.8338 15.9465 29.6556 15.0726 29.9057 14.5198C30.1558 13.967 29.8521 13.9313 29.9057 13.5746C29.9593 13.218 30.799 12.2906 31.4243 10.4181C32.0318 8.54562 31.3528 6.33428 31.3528 6.33428C29.3161 0.431426 23.206 0.823761 23.206 0.823761C23.1882 0.823761 17.0959 0.431426 15.0771 6.36995C15.0771 6.36995 14.3803 8.56345 15.0056 10.4538C15.613 12.3263 16.4706 13.2536 16.5242 13.6103C16.5778 13.967 16.2741 14.0026 16.5242 14.5555C16.7743 15.1083 17.5962 15.9821 16.5242 17.498C15.4523 19.0138 12.2721 20.0838 9.59226 19.0317C6.93025 17.9795 6.57293 15.8751 6.66226 14.5733C6.75159 13.2715 8.46671 12.79 9.16348 13.4498C9.86025 14.1096 10.0032 15.0905 9.59226 15.6255C9.18135 16.1605 8.80616 16.1248 8.52031 16.1248C8.23446 16.1248 8.48458 16.7311 9.71732 16.3388C10.9501 15.9465 11.3431 12.79 9.34214 12.0231C7.34117 11.2563 4.41117 13.2001 5.51885 16.7846C6.62653 20.387 9.50293 21.2787 12.0041 21.5283C14.5054 21.778 15.756 21.0468 15.8274 21.2965C15.881 21.5462 13.3262 24.5065 10.5749 23.9715C7.82354 23.4365 7.98433 19.9412 5.82257 19.2457C3.64294 18.5502 2.08861 20.7972 2.9819 22.9907C3.87519 25.1842 6.03696 26.7178 7.51982 26.9319C9.00269 27.1459 6.87665 26.8783 5.51885 25.095C4.16105 23.3117 3.57147 21.4927 4.53623 20.6723C5.48312 19.8342 6.14415 21.6532 6.96598 23.6862C7.80568 25.7192 10.8786 26.7535 13.5049 26.0223C16.1312 25.2912 18.0428 23.1868 18.4359 23.1868C18.8289 23.1868 17.5962 25.6835 14.3624 27.2529C11.1287 28.8222 6.87665 29.1967 4.58983 28.0554C2.303 26.914 0.802268 27.3777 0.284159 27.663C-0.233951 27.9484 1.85635 27.5382 3.0355 28.2159C4.21464 28.8935 5.92976 30.2489 9.36 30.3915C12.8081 30.552 16.0597 30.338 19.0612 28.7687C22.0448 27.1994 23.2239 23.0977 23.2239 23.0798C23.2239 23.1333 24.403 27.2172 27.3866 28.7687C30.3702 30.338 33.6397 30.552 37.0878 30.3915C40.5359 30.231 42.251 28.8757 43.4123 28.2159C44.5914 27.5382 46.6817 27.9305 46.1636 27.663V27.6274H46.1458Z" fill="#FF9100"/>
<path d="M14.3649 13.5927C14.4542 13.8602 14.49 14.1633 14.4185 14.4486C14.222 15.1797 13.5074 15.3581 12.8464 16.2496C12.0425 17.3196 13.2395 18.1755 14.5257 18.1398C15.8119 18.1042 16.7409 17.4265 17.0446 16.8559C17.3482 16.2853 16.9195 17.7654 16.3121 18.4786C15.7047 19.2097 14.2756 19.6734 14.2756 19.6734C14.2756 19.6734 11.7031 18.8888 11.7031 17.0877C11.7031 15.2867 12.9358 15.5542 13.6503 14.6626C13.6503 14.6626 14.1327 14.1455 13.9362 13.5392C13.7575 12.9151 13.5967 12.8438 13.5967 12.7011C13.5967 12.5584 13.954 12.7368 14.1505 13.0934C14.2399 13.2539 14.3113 13.4322 14.3649 13.5749V13.5927Z" fill="#FF9100"/>
<path d="M21.9902 15.643C21.9902 16.5524 21.6507 14.787 20.3466 14.787C19.0425 14.787 18.7031 16.5346 18.7031 15.643C18.7031 14.7514 19.4356 14.0024 20.3466 14.0024C21.2577 14.0024 21.9902 14.7335 21.9902 15.643Z" fill="#211E25"/>
<path d="M27.873 15.643C27.873 16.5524 27.5336 14.787 26.2295 14.787C24.9254 14.787 24.5859 16.5346 24.5859 15.643C24.5859 14.7514 25.3184 14.0024 26.2295 14.0024C27.1405 14.0024 27.873 14.7335 27.873 15.643Z" fill="#211E25"/>
<path d="M32.0532 13.5927C31.9638 13.8602 31.9281 14.1633 31.9996 14.4486C32.1961 15.1797 32.9106 15.3581 33.5716 16.2496C34.3755 17.3196 33.1786 18.1755 31.8924 18.1398C30.6061 18.1042 29.6772 17.4265 29.3735 16.8559C29.0698 16.2853 29.4986 17.7654 30.1059 18.4786C30.7133 19.2097 32.1425 19.6734 32.1425 19.6734C32.1425 19.6734 34.7149 18.8888 34.7149 17.0877C34.7149 15.2867 33.4823 15.5542 32.7677 14.6626C32.7677 14.6626 32.2854 14.1455 32.4819 13.5392C32.6605 12.9151 32.8213 12.8438 32.8213 12.7011C32.8213 12.5584 32.464 12.7368 32.2675 13.0934C32.071 13.45 32.1067 13.4322 32.0532 13.5749V13.5927Z" fill="#FF9100"/>
<path d="M23.2067 24.0601C23.2067 24.0601 23.1531 24.7733 23.0637 25.023C22.9744 25.2726 22.7422 25.1835 22.7422 25.1835L23.2067 24.0601Z" fill="#211E25"/>
<path d="M22.5226 25.6648C22.5226 25.6648 22.6834 25.7183 22.6834 25.861C22.6834 26.0036 22.2546 26.6634 22.1653 26.7882C22.076 26.913 21.8438 26.8239 21.8438 26.8239C21.8438 26.8239 22.344 26.2533 22.5405 25.647H22.5226V25.6648Z" fill="#211E25"/>
<path d="M21.3264 27.4307C21.3264 27.4307 21.4872 27.5555 21.5051 27.6625C21.5229 27.7695 20.9334 28.3044 20.6476 28.5719C20.3439 28.8394 20.1474 28.8929 20.1117 28.8572C20.0759 28.8216 19.9688 28.6432 19.9688 28.6432C19.9688 28.6432 20.9156 27.93 21.3264 27.4307Z" fill="#211E25"/>
<path d="M19.2342 29.125C19.2342 29.125 19.3593 29.2498 19.3236 29.3746C19.2878 29.4995 18.5554 29.8561 18.216 30.0166C17.8587 30.1771 17.3228 30.3911 17.0905 30.3911C16.8583 30.3911 16.8047 30.0701 16.8047 30.0701C16.8047 30.0701 18.1266 29.7848 19.2342 29.125Z" fill="#211E25"/>
<path d="M15.6901 30.3018C15.6901 30.3018 15.8152 30.6227 15.7973 30.7476C15.7795 30.8724 14.6361 30.9794 14.1359 31.0329C13.6357 31.0864 12.9212 31.1399 12.8676 31.0329C12.814 30.9259 12.8676 30.6941 12.8676 30.6941C12.8676 30.6941 15.047 30.5514 15.6901 30.3018Z" fill="#211E25"/>
<path d="M11.821 30.7119C11.821 30.7119 11.8925 31.0151 11.821 31.1042C11.7496 31.2112 10.3919 31.1755 9.89166 31.1042C9.40933 31.0329 9.46292 30.8902 9.49865 30.7119C9.49865 30.7119 11.1422 30.8546 11.821 30.7119Z" fill="#211E25"/>
<path d="M8.38003 30.5692C8.38003 30.5692 8.32644 30.9259 8.27284 30.9259C8.21925 30.9259 7.62973 30.8545 7.3439 30.7476C7.05807 30.6406 6.96875 30.7119 6.96875 30.5692C6.96875 30.4266 7.00448 30.3018 7.00448 30.3018C7.00448 30.3018 7.73691 30.5336 8.38003 30.5692Z" fill="#211E25"/>
<path d="M5.28567 29.6953C5.28567 29.6953 5.89306 29.9985 6.23248 30.0698C6.23248 30.0698 6.17889 30.4621 6.0717 30.4621C5.96452 30.4621 5.46432 30.3016 5.23208 30.2124C4.99985 30.1233 5.08917 29.8736 5.28567 29.6953Z" fill="#211E25"/>
<path d="M3.88156 28.9463L4.614 29.3921C4.614 29.3921 4.47108 29.7487 4.39962 29.7487C4.32817 29.7487 3.82797 29.4277 3.68505 29.3386C3.54214 29.2316 3.8637 28.9463 3.8637 28.9463H3.88156Z" fill="#211E25"/>
<path d="M2.6091 28.1982C2.6091 28.1982 3.03784 28.4122 3.19862 28.537C3.3594 28.6619 3.19862 28.7332 3.14502 28.8224C3.09143 28.9293 2.96638 28.858 2.8056 28.7332C2.64482 28.6084 2.48404 28.5727 2.43045 28.5014C2.37686 28.4301 2.59123 28.1982 2.6091 28.1982Z" fill="#211E25"/>
<path d="M1.0627 27.9304C1.0627 27.9304 1.68795 27.9483 1.813 27.9839C1.93805 28.0196 1.84873 28.3406 1.75941 28.3406C1.67009 28.3406 1.3128 28.2157 1.15202 28.1979C0.991242 28.1801 1.0627 27.9126 1.0627 27.9126V27.9304Z" fill="#211E25"/>
<path d="M23.2031 24.0601C23.2031 24.0601 23.2567 24.7733 23.346 25.023C23.4354 25.2726 23.6676 25.1835 23.6676 25.1835L23.2031 24.0601Z" fill="#211E25"/>
<path d="M23.903 25.6648C23.903 25.6648 23.7422 25.7183 23.7422 25.861C23.7422 26.0036 24.1709 26.6634 24.2603 26.7882C24.3674 26.913 24.5818 26.8239 24.5818 26.8239C24.5818 26.8239 24.0816 26.2533 23.8851 25.647H23.903V25.6648Z" fill="#211E25"/>
<path d="M25.0775 27.4307C25.0775 27.4307 24.9167 27.5555 24.8988 27.6625C24.881 27.7695 25.4705 28.3044 25.7563 28.5719C26.06 28.8394 26.2565 28.8929 26.2922 28.8572C26.328 28.8216 26.4352 28.6432 26.4352 28.6432C26.4352 28.6432 25.4884 27.93 25.0775 27.4307Z" fill="#211E25"/>
<path d="M27.1817 29.125C27.1817 29.125 27.0566 29.2498 27.0924 29.3746C27.1281 29.4995 27.8605 29.8561 28.1999 30.0166C28.5572 30.1771 29.0932 30.3911 29.3254 30.3911C29.5576 30.3911 29.6112 30.0701 29.6112 30.0701C29.6112 30.0701 28.2893 29.7848 27.1817 29.125Z" fill="#211E25"/>
<path d="M30.7496 30.3018C30.7496 30.3018 30.6245 30.6227 30.6424 30.7476C30.6602 30.8724 31.8036 30.9794 32.3038 31.0329C32.804 31.0864 33.5185 31.1399 33.5721 31.0329C33.6257 30.9259 33.5721 30.6941 33.5721 30.6941C33.5721 30.6941 31.3927 30.5514 30.7496 30.3018Z" fill="#211E25"/>
<path d="M34.6099 30.7119C34.6099 30.7119 34.5384 31.0151 34.6099 31.1042C34.6813 31.2112 36.039 31.1755 36.5392 31.1042C37.0216 31.0329 36.968 30.8902 36.9322 30.7119C36.9322 30.7119 35.2887 30.8546 34.6277 30.7119H34.6099Z" fill="#211E25"/>
<path d="M38.0547 30.5692C38.0547 30.5692 38.1083 30.9259 38.1619 30.9259C38.2155 30.9259 38.805 30.8545 39.0908 30.7476C39.3945 30.6406 39.466 30.7119 39.466 30.5692C39.466 30.4266 39.4302 30.3018 39.4302 30.3018C39.4302 30.3018 38.6978 30.5336 38.0547 30.5692Z" fill="#211E25"/>
<path d="M41.1577 29.6958C41.1577 29.6958 40.5504 29.9989 40.2109 30.0703C40.2109 30.0703 40.2645 30.4626 40.3717 30.4626C40.4789 30.4626 40.9791 30.3021 41.2113 30.2129C41.4436 30.1059 41.3543 29.8741 41.1577 29.6958Z" fill="#211E25"/>
<path d="M42.5449 28.9463L41.8125 29.3921C41.8125 29.3921 41.9554 29.7487 42.0269 29.7487C42.0983 29.7487 42.5985 29.4277 42.7414 29.3386C42.8844 29.2316 42.5628 28.9463 42.5449 28.9463Z" fill="#211E25"/>
<path d="M43.8154 28.1982C43.8154 28.1982 43.3866 28.4122 43.2259 28.537C43.0651 28.6619 43.2259 28.7332 43.2795 28.8224C43.3331 28.9293 43.4581 28.858 43.6189 28.7332C43.7797 28.6084 43.9404 28.5727 43.994 28.5014C44.0476 28.4122 43.8333 28.1982 43.8333 28.1982H43.8154Z" fill="#211E25"/>
<path d="M45.3589 27.9304C45.3589 27.9304 44.7336 27.9483 44.6086 27.9839C44.4835 28.0196 44.5729 28.3406 44.6622 28.3406C44.7515 28.3406 45.1088 28.2157 45.2696 28.1979C45.4304 28.1801 45.3589 27.9126 45.3589 27.9126V27.9304Z" fill="#211E25"/>
<path d="M48.1797 9.47168H59.8639V12.3429H55.7905V23.0786H52.2174V12.3429H48.1797V9.47168Z" fill="#211E25"/>
<path d="M64.2718 9.47168H67.9343L73.6514 23.0786H69.8638L66.0227 13.0205L62.0922 23.0786H58.4297L64.2718 9.47168ZM61.9314 17.9604H69.8817V20.6354H61.9314V17.9604Z" fill="#211E25"/>
<path d="M74.8438 9.47168H78.3991V15.4459L83.5087 9.47168H87.6357L78.3991 19.6724V23.0607H74.8438V9.47168ZM82.3117 14.6969L87.9573 23.0786H83.7052L79.9534 17.4967L82.3117 14.6969Z" fill="#211E25"/>
<path d="M115.515 12.8611C115.032 12.5579 114.55 12.3261 114.05 12.1299C113.55 11.9338 113.085 11.7911 112.638 11.7198C112.192 11.6306 111.799 11.5949 111.441 11.5949C110.834 11.5949 110.352 11.7198 109.976 11.9516C109.601 12.1834 109.423 12.5223 109.423 12.9859C109.423 13.3961 109.548 13.7349 109.816 14.0024C110.084 14.2699 110.423 14.4661 110.87 14.6444C111.298 14.8049 111.781 14.9654 112.299 15.1259C112.817 15.2864 113.335 15.4469 113.853 15.6431C114.371 15.8393 114.854 16.0711 115.283 16.3743C115.711 16.6774 116.069 17.0519 116.319 17.5156C116.587 17.9793 116.712 18.5678 116.712 19.2633C116.712 20.1014 116.48 20.8148 116.033 21.4211C115.586 22.0096 114.961 22.4733 114.175 22.7943C113.389 23.1153 112.495 23.2758 111.495 23.2758C110.762 23.2758 110.066 23.1866 109.369 22.9905C108.672 22.7943 108.029 22.5446 107.404 22.2236C106.796 21.9026 106.242 21.5281 105.742 21.1001L106.832 18.9779C107.297 19.4059 107.797 19.7626 108.351 20.0658C108.887 20.3689 109.44 20.6008 109.994 20.7613C110.548 20.9218 111.066 21.011 111.531 21.011C112.263 21.011 112.835 20.8683 113.246 20.5829C113.657 20.2976 113.853 19.9053 113.853 19.3881C113.853 18.9601 113.728 18.6213 113.46 18.3538C113.192 18.0863 112.853 17.8723 112.424 17.7118C111.995 17.5513 111.513 17.3908 110.995 17.2481C110.477 17.1054 109.941 16.9449 109.423 16.7666C108.904 16.5704 108.422 16.3386 107.993 16.0533C107.565 15.7679 107.207 15.3934 106.939 14.9298C106.671 14.4839 106.546 13.8954 106.546 13.1999C106.546 12.4153 106.761 11.7376 107.189 11.1491C107.618 10.5784 108.208 10.1326 108.976 9.81158C109.744 9.49058 110.62 9.33008 111.656 9.33008C112.567 9.33008 113.442 9.45491 114.318 9.72241C115.175 9.98991 115.926 10.3287 116.587 10.7567L115.515 12.8611Z" fill="#FF8B00"/>
<path d="M117.531 9.49023H120.336L123.856 21.4386H123.213L126.732 9.49023H129.305L132.824 21.4386H132.199L135.683 9.49023H138.381L133.771 23.0793H131.074L127.661 11.5946H128.304L124.803 23.0793H122.141L117.531 9.49023Z" fill="#FF8B00"/>
<path d="M143.383 9.49023H146.046L151.941 23.0793H149.154L144.616 12.1117L140.114 23.0793H137.398L143.383 9.49023ZM140.543 17.9968H148.654V20.1189H140.543V17.9968Z" fill="#FF8B00"/>
<path d="M159.191 9.49023C160.906 9.49023 162.246 9.9004 163.193 10.7207C164.14 11.5411 164.605 12.6824 164.605 14.1626C164.605 15.6963 164.14 16.8911 163.193 17.7471C162.246 18.6031 160.906 19.0311 159.191 19.0311H155.082L156.226 17.8898V23.0971H153.617V9.49023H159.191ZM159.066 16.8733C160.031 16.8733 160.781 16.6593 161.317 16.2134C161.835 15.7676 162.103 15.1078 162.103 14.2161C162.103 13.3601 161.835 12.7181 161.317 12.3079C160.799 11.8799 160.049 11.6837 159.066 11.6837H155.082L156.226 10.5424V18.0324L155.082 16.8911H159.066V16.8733Z" fill="#FF8B00"/>
<path d="M93.9146 14.9476H94.9864L95.1651 14.8763L95.3794 15.0903C95.4152 15.1438 95.3973 15.1794 95.308 15.2151C95.2187 15.6431 95.0936 16.0354 94.915 16.392L95.308 16.6416L95.0757 16.9983L94.7185 16.7486C94.4148 17.1944 93.9682 17.5689 93.3786 17.8542L93.0035 17.5867C93.6466 17.3193 94.1111 16.9626 94.379 16.5346C94.1111 16.3563 93.8431 16.2137 93.593 16.071L93.7895 15.7857C94.1289 15.9284 94.3969 16.071 94.6113 16.1958C94.7721 15.857 94.8614 15.5717 94.8971 15.3221H93.7181C93.5216 15.6787 93.2715 16.0175 92.9678 16.3207L92.6641 16.1067C93.2179 15.5361 93.5751 14.9476 93.7359 14.3057L94.1289 14.4662C94.2183 14.5018 94.2004 14.5553 94.0575 14.591C94.0396 14.698 93.986 14.8228 93.9146 14.9476Z" fill="#211E25"/>
<path d="M99.1471 15.4831H96.9141V15.1265H99.5222V17.4089H99.1471V17.2306H96.9141V16.874H99.1471V15.4831Z" fill="#211E25"/>
<path d="M102.783 16.3026C102.783 20.0833 99.782 23.0615 95.923 23.0615C92.0818 23.0615 89.0625 20.0833 89.0625 16.3026C89.0625 12.5219 92.064 9.49023 95.923 9.49023C99.7641 9.49023 102.783 12.5219 102.783 16.3026ZM100.121 16.3026C100.121 13.8238 98.2813 11.9869 95.923 11.9869C93.5647 11.9869 91.7245 13.8238 91.7245 16.3026C91.7245 18.7814 93.5647 20.5826 95.923 20.5826C98.2813 20.5826 100.121 18.7814 100.121 16.3026Z" fill="#211E25"/>
</svg>
