<svg width="168" height="36" viewBox="0 0 168 36" fill="none" xmlns="http://www.w3.org/2000/svg">
<path d="M14.5996 17.2439C15.3513 18.5595 13.6599 18.9354 12.9081 19.0294C11.7805 19.1234 11.4986 18.4656 11.6865 17.6198C11.6865 17.3379 11.9684 17.056 12.1564 16.8681C12.3443 16.6801 12.7202 16.4922 13.0021 16.4922C13.284 16.4922 13.6599 16.4922 13.8478 16.6801C14.1297 16.7741 14.3177 17.056 14.5056 17.3379L14.5996 17.2439Z" fill="#EB1A6B"/>
<path d="M19.1227 14.8945C18.277 21.4725 29.7414 20.0629 29.5535 25.2313C30.6811 23.7277 31.1509 19.781 27.862 17.7136C24.8549 15.8342 21.0021 16.8679 19.2167 14.8945H19.1227Z" fill="#EB1A6B"/>
<path d="M25.7895 12.3574C25.7895 12.3574 25.6016 12.2634 25.6016 12.1694L25.7895 12.3574Z" fill="#EB1A6B"/>
<path d="M28.4093 17.1486C28.3153 16.9606 28.2214 16.7727 28.0334 16.5847C27.6575 16.0209 27.0937 15.645 26.4359 15.5511C26.06 15.4571 25.5902 15.3631 25.1203 15.3631C24.6505 15.3631 24.2746 15.3631 23.8047 15.3631C22.865 15.3631 22.0193 15.1752 21.0796 14.9872C20.8917 14.9872 20.6097 14.8933 20.4218 14.7993C20.3278 14.7993 20.2339 14.7993 20.0459 14.7053C19.952 14.7053 19.858 14.6114 19.67 14.5174C19.2002 14.3295 18.8243 13.9536 18.5424 13.6717C17.8846 13.0139 17.3208 12.2621 16.757 11.6043C16.1931 10.8525 15.7233 10.1948 15.0655 9.53696C14.5017 8.87917 13.7499 8.31535 12.9981 7.93947C12.2464 7.56359 11.3067 7.28167 10.4609 7.1877C11.4006 7.09373 12.3403 7.1877 13.1861 7.56358C14.0318 7.93947 14.8775 8.40932 15.5353 9.06711C16.0052 9.44299 16.3811 9.91284 16.757 10.3827C19.67 9.81887 21.9253 10.3827 23.7108 11.3224C24.2746 11.6983 24.8384 11.9802 25.3083 12.45C25.3083 12.45 25.4962 12.544 25.4962 12.638C25.8721 13.0139 26.248 13.3897 26.5299 13.7656C27.5636 15.1752 28.1274 16.5847 28.1274 17.4305L28.4093 17.1486Z" fill="#EB1A6B"/>
<path d="M10.7502 7.84614C11.502 7.94011 12.2537 8.22203 12.7236 8.78585C13.1935 9.34967 13.3814 10.1014 13.5693 10.7592C13.6633 11.3231 13.7573 11.8869 13.9452 12.3567C14.0392 12.6386 14.2271 12.8266 14.3211 13.0145C14.4151 13.2025 14.603 13.3904 14.697 13.5783C14.697 13.5783 14.697 13.5783 14.697 13.6723C14.4151 13.9542 13.7573 13.6723 13.4754 13.4844C13.0055 13.2964 12.6296 12.9205 12.2537 12.5447C11.2201 11.417 10.6562 9.72555 10.6562 8.22203C10.6562 8.03409 10.6562 7.84614 10.6562 7.6582L10.7502 7.84614Z" fill="#EB1A6B"/>
<path d="M22.9675 21.0024C21.37 25.419 28.6057 28.4261 25.8805 32.9367C28.6057 31.809 29.9213 28.3321 28.7936 25.607C27.76 23.1638 24.8469 22.318 22.9675 21.0024Z" fill="#EB1A6B"/>
<path d="M13.4846 26.7346C13.9544 26.4527 14.4243 26.1708 14.8942 25.8889C15.364 25.7009 15.9278 25.513 16.4917 25.419C17.5253 25.2311 18.653 25.1371 19.4987 24.7612C19.9686 24.5733 20.3444 24.3854 20.7203 24.0095C21.0962 23.7276 21.2841 23.3517 21.4721 22.8818C21.66 22.412 21.66 21.9421 21.66 21.4723C21.66 20.9085 21.4721 20.4386 21.2841 19.9688C21.66 20.3446 21.9419 20.9085 22.1299 21.4723C22.3178 22.0361 22.3178 22.5999 22.1299 23.1637C22.0359 23.7276 21.66 24.2914 21.2841 24.7612C20.9083 25.1371 20.3444 25.513 19.7806 25.7009C19.2168 25.8889 18.653 25.9828 18.0891 26.0768C17.5253 26.0768 17.0555 26.0768 16.4917 26.0768C15.458 26.0768 14.4243 26.3587 13.3906 26.6406L13.4846 26.7346Z" fill="#EB1A6B"/>
<path d="M23.644 34.5342C23.4561 34.6282 23.3621 34.8161 23.1741 34.9101C22.9862 35.0041 22.7983 35.098 22.6103 35.192C22.2344 35.3799 21.7646 35.4739 21.2947 35.4739C20.0731 35.4739 19.2274 34.5342 18.7575 33.5005C18.3816 32.8427 18.1937 32.091 17.8178 31.4332C17.254 30.4935 16.2203 29.7417 15.0927 29.8357C14.6228 29.8357 14.153 30.1176 13.965 30.4935C13.3072 31.5272 14.2469 33.0307 15.5625 32.8427C15.6565 32.8427 15.7505 32.8427 15.8444 32.8427C15.9384 32.8427 16.0324 32.7488 16.1264 32.6548C16.3143 32.4669 16.4083 32.2789 16.5022 32.091C16.5022 31.903 16.5962 31.6211 16.5022 31.3392C16.5022 31.0573 16.3143 30.8694 16.1264 30.7754C16.4083 30.8694 16.5962 31.0573 16.6902 31.3392C16.7841 31.6211 16.7841 31.903 16.6902 32.1849C16.6902 32.4669 16.5022 32.7488 16.3143 32.9367C16.2203 33.0307 16.1264 33.1246 15.9384 33.2186C15.8444 33.2186 15.6565 33.4066 15.5625 33.4066C15.2806 33.5005 14.9987 33.5005 14.7168 33.4066C14.3409 33.4066 13.8711 33.2186 13.5891 32.9367C13.2133 32.6548 12.9314 32.1849 12.5555 31.903C12.1796 31.4332 11.7097 31.1513 11.1459 30.8694C10.77 30.6814 10.3942 30.5874 10.0183 30.4935C9.83033 30.4935 9.64239 30.4935 9.45445 30.3995C9.45445 30.3995 8.89062 30.3055 8.89062 30.3995C9.54842 29.8357 10.2062 29.3658 10.864 28.896C11.6158 28.4261 12.3675 28.1442 13.2133 27.8623C14.059 27.5804 14.9047 27.5804 15.8444 27.6744C16.3143 27.6744 16.6902 27.8623 17.16 28.0502C17.6299 28.2382 18.0058 28.5201 18.3816 28.802C18.7575 29.1779 19.0394 29.5538 19.2274 29.9297C19.4153 30.3055 19.5093 30.7754 19.6033 31.2452C19.8852 32.5608 19.7912 34.6282 21.4827 34.9101C21.4827 34.9101 21.6706 34.9101 21.7646 34.9101H22.0465C22.2344 34.9101 22.4224 34.9101 22.6103 34.9101C22.9862 34.9101 23.3621 34.7221 23.738 34.5342H23.644Z" fill="#EB1A6B"/>
<path d="M12.0733 14.5187C12.0733 14.8006 11.8854 14.9885 11.7914 15.1765C11.5095 15.5523 11.1336 15.8343 10.7577 16.0222C10.3819 16.2101 10.006 16.3041 9.53613 16.3041C9.53613 16.3041 9.34819 16.3041 9.25422 16.3041C8.97231 16.3041 8.78437 16.3981 8.50245 16.586C8.31451 16.774 8.12657 16.9619 8.12657 17.2438C8.12657 17.3378 8.12657 17.5257 8.12657 17.6197C8.12657 17.9956 8.12657 18.2775 8.12657 18.7473C8.12657 19.4991 7.84466 20.1569 7.56275 20.8147C7.18687 21.6604 6.71702 22.4122 6.81099 23.3519C6.81099 24.0097 7.18687 24.4795 7.65672 24.8554C8.40848 25.7012 10.1939 26.077 9.81804 28.0504C9.53613 29.272 7.56275 30.4936 4.83761 30.9635C5.11952 30.9635 4.46172 29.8358 4.46172 29.7419C4.17981 29.272 3.80393 28.8022 3.61599 28.3323C3.14614 27.3926 2.9582 26.171 3.14614 25.1373C3.33408 24.0097 4.17981 23.1639 4.83761 22.2242C5.68334 21.1906 6.52907 19.875 6.71702 18.4654C6.71702 18.1835 6.71702 17.7137 6.90496 17.3378C6.90496 16.8679 7.0929 16.4921 7.28084 16.0222C7.37481 15.7403 7.56275 15.5524 7.84466 15.2704C7.93863 15.1765 8.0326 14.9885 8.0326 14.8946C8.0326 14.7066 8.0326 14.6126 8.0326 14.4247L3.61599 6.43722L10.006 14.3307C10.006 14.3307 10.1939 14.5187 10.2879 14.5187C10.3819 14.5187 10.4758 14.5187 10.6638 14.5187C10.7577 14.5187 10.8517 14.5187 11.0397 14.5187C11.1336 14.5187 11.2276 14.4247 11.3216 14.3307C11.3216 14.2368 11.4155 14.1428 11.4155 13.9549C11.4155 13.8609 11.4155 13.6729 11.3216 13.579C10.9457 13.0152 10.4758 12.5453 10.006 11.9815L8.40848 10.0081L5.21349 6.06134L0.796875 0.51709L5.58937 5.68546L8.97231 9.44427L10.6638 11.3237C11.2276 11.9815 11.7914 12.5453 12.3552 13.2971C12.3552 13.391 12.3552 13.579 12.3552 13.579C12.3552 13.8609 12.3552 14.0488 12.3552 14.3307L12.0733 14.5187Z" fill="#EB1A6B"/>
<path fill-rule="evenodd" clip-rule="evenodd" d="M96.358 11.7938C93.2569 12.5455 91.8473 14.9888 92.6931 17.9019C93.069 19.1236 94.1966 20.4392 95.8881 21.3789C98.8013 23.0704 99.741 23.7282 100.211 24.7619C100.587 25.6076 100.681 25.8895 100.493 26.7353C100.023 28.6147 98.7073 29.5544 96.8279 29.5544C94.9484 29.5544 93.6328 28.5207 93.2569 26.7353C93.1629 25.9835 92.975 25.7956 92.6931 25.7956C92.4111 25.7956 92.2232 25.9835 92.2232 27.769V29.7424L93.4448 30.1183C95.4183 30.7761 98.1435 30.6821 99.741 29.9303C102.936 28.4268 104.158 25.5136 102.748 22.7885C102.184 21.7548 100.869 20.6271 98.6133 19.2175C96.17 17.714 95.1364 16.6803 94.9484 15.6466C94.6665 13.9551 96.1701 12.6395 98.2375 12.6395C99.835 12.6395 100.493 13.0154 101.057 14.237C101.433 14.9888 101.62 15.2707 102.09 15.2707C102.56 15.2707 102.654 15.2707 102.466 14.7069C102.466 14.425 102.278 13.6732 102.278 13.1094C102.278 12.3576 102.184 11.9817 101.902 11.8877C101.245 11.6058 97.2038 11.5118 96.358 11.7938ZM34.3359 12.4516C34.3359 12.8274 34.5239 12.9214 34.8998 12.9214C36.0275 12.9214 36.1214 13.2033 36.2154 20.0633C36.3094 25.9835 36.4033 26.4534 36.8732 27.3931C37.531 28.6147 38.4707 29.4605 39.8803 30.1183C40.8201 30.5881 41.4779 30.6821 43.4513 30.6821C45.5187 30.6821 45.9886 30.6821 47.1162 30.0243C47.868 29.6484 48.8078 28.9906 49.1836 28.5208C50.4993 26.9232 50.6872 26.0775 50.7812 19.4994C50.9691 13.1094 50.9691 13.0154 52.0028 13.0154C52.2847 13.0154 52.3787 12.8274 52.3787 12.5455C52.3787 12.0757 52.1908 12.0757 49.5595 12.0757C46.9283 12.0757 46.7404 12.0757 46.7404 12.5455C46.7404 13.0154 46.9283 13.0154 47.4921 13.1094C48.7138 13.2033 48.8077 13.6732 48.8077 19.4994C48.8077 25.4197 48.6198 26.5473 47.3042 27.769C46.1765 28.8966 45.2368 29.2725 43.6392 29.2725C41.3839 29.2725 39.6924 28.2388 39.2225 26.3594C39.0346 25.7016 38.9406 23.4463 39.0346 19.4055V13.3913L39.9743 13.1094C40.4442 12.9214 40.8201 12.6395 40.914 12.4516C40.914 12.0757 40.6321 12.0757 37.719 12.0757C34.8058 12.0757 34.4299 12.0757 34.4299 12.5455L34.3359 12.4516ZM56.2316 12.4516C56.2316 12.8274 56.4196 12.9214 56.8894 12.9214C58.1111 12.9214 58.7689 13.3913 59.0508 14.425C59.2387 14.9888 59.2387 17.714 59.2387 21.5668C59.2387 28.5207 59.0508 28.9906 57.6412 29.2725C57.1713 29.3665 56.9834 29.5544 56.9834 29.8363C56.9834 30.1183 57.1713 30.3062 60.2724 30.3062C63.3735 30.3062 63.5615 30.3062 63.5615 29.9303C63.5615 29.5544 63.2796 29.4605 62.5278 29.2725C61.5881 28.9906 61.4941 28.8966 61.2122 28.1449C60.9302 27.1112 60.8363 16.5863 61.2122 16.5863C61.3061 16.5863 62.2459 17.526 63.2796 18.7477C64.3133 19.9693 67.0385 23.0704 69.4818 25.6076C73.2407 29.6484 73.8985 30.4002 74.4623 30.4002H75.1201V22.1307C75.2141 16.2104 75.3081 13.7672 75.496 13.5792C75.684 13.3913 76.1538 13.2033 76.5297 13.1094C76.9996 13.1094 77.2815 12.8274 77.2815 12.6395C77.2815 12.4516 76.7177 12.2636 74.0864 12.2636C70.9853 12.2636 70.8914 12.2636 70.8914 12.6395C70.8914 13.0154 71.0793 13.1094 71.4552 13.1094C71.8311 13.1094 72.301 13.3913 72.6768 13.6732L73.3347 14.237V19.8753C73.4286 23.0704 73.3347 25.5136 73.3347 25.5136C73.3347 25.5136 72.4889 24.7619 71.7371 23.9161C70.9853 23.0704 68.824 20.6271 66.9445 18.5597C65.0651 16.4923 62.9976 14.237 62.3398 13.4852L61.2122 12.1696H58.7689C56.5135 12.1696 56.3256 12.1696 56.3256 12.6395L56.2316 12.4516ZM80.8525 12.4516C80.8525 12.8274 81.0404 12.9214 81.5103 12.9214C81.9802 12.9214 82.356 13.1094 82.638 13.2973C83.1078 13.5792 83.1078 14.0491 83.2018 20.5331C83.2018 28.6147 83.2018 29.0846 81.7922 29.2725C81.1344 29.3665 80.8525 29.5544 80.8525 29.8363C80.8525 30.1183 81.1344 30.3062 84.4235 30.3062C87.7125 30.3062 87.9944 30.3062 87.9944 29.8363C87.9944 29.3665 87.8065 29.3665 87.4306 29.3665C87.0547 29.3665 86.6788 29.1786 86.3969 28.9906C85.927 28.7087 85.927 28.2388 85.833 21.2849C85.833 14.1431 85.833 13.8611 86.2089 13.3913C86.4909 13.1094 86.9607 12.9214 87.2426 12.9214C87.5246 12.9214 87.8065 12.8274 87.8065 12.4516C87.8065 12.0757 87.6185 11.9817 84.2355 11.9817C80.8525 11.9817 80.6645 11.9817 80.6645 12.4516H80.8525ZM105.567 12.4516C105.567 12.7335 105.849 12.9214 106.225 12.9214C106.601 12.9214 106.977 13.2033 107.259 13.4852C107.541 13.7672 109.138 17.62 110.924 22.2246L114.025 30.4002H114.871L115.716 30.4942L117.878 24.6679C119.099 21.4729 120.227 18.5597 120.321 18.2778C120.603 17.714 120.603 17.808 121.355 19.6874C121.731 20.8151 122.858 23.6342 123.798 26.0775L125.49 30.4942H126.241C126.617 30.4942 126.993 30.4002 127.087 30.2122C127.087 30.0243 128.215 27.2991 129.53 24.1041C130.752 20.909 132.162 17.3381 132.632 16.2104C133.665 13.5792 133.853 13.2973 134.605 13.0154C134.981 12.9214 135.263 12.6395 135.263 12.4516C135.263 12.1696 134.793 12.0757 132.444 12.0757C130.094 12.0757 129.624 12.0757 129.624 12.5455C129.624 13.0154 129.812 13.0154 130.188 13.0154C131.128 13.0154 131.504 13.2973 131.504 13.8611C131.504 14.425 126.993 26.4534 126.711 26.7353C126.523 26.9232 122.482 15.6466 122.388 14.5189C122.201 13.4853 122.67 13.0154 123.704 13.0154C124.738 13.0154 124.268 12.9214 124.268 12.5455C124.268 12.1696 124.08 12.0757 120.603 12.0757C117.126 12.0757 116.938 12.0757 116.938 12.5455C116.938 13.0154 117.126 13.0154 117.314 13.0154C118.066 13.0154 119.005 13.7672 119.287 14.425C119.663 15.4587 119.287 16.4923 117.22 22.1307L115.434 26.9232L115.059 25.9835C114.871 25.5136 113.743 22.5065 112.615 19.4055C110.36 13.2973 110.36 13.0154 111.864 13.0154C113.367 13.0154 112.521 12.9214 112.521 12.5455C112.521 12.1696 112.333 12.0757 109.044 12.0757C105.755 12.0757 105.567 12.0757 105.661 12.5455L105.567 12.4516ZM153.118 12.6395C153.118 12.6395 153.118 12.9214 153.118 13.0154L153.399 13.1094C153.587 13.1094 153.681 13.1094 153.869 13.2033C154.621 13.3913 155.091 13.4852 155.279 13.9551C155.373 14.237 155.467 15.3647 155.467 21.2849C155.467 27.4871 155.467 28.2388 155.279 28.6147C155.091 29.0846 154.715 29.3665 153.775 29.6484C153.775 29.6484 153.399 29.7424 153.306 29.8363C153.212 29.9303 153.212 30.1183 153.212 30.1183C153.212 30.1183 153.212 30.3062 153.212 30.4002C153.212 30.4942 153.587 30.4002 153.587 30.4002H155.937H159.884C159.884 30.4002 160.072 30.4002 160.166 30.4002C160.166 30.3062 160.166 30.1183 160.166 30.1183C160.166 30.1183 160.166 29.9303 160.072 29.8363C159.978 29.7424 159.602 29.6484 159.602 29.6484C158.756 29.4605 158.286 29.1786 158.098 28.7087C157.91 28.3328 157.91 27.4871 157.91 25.5136V22.6945C158.004 22.6945 158.098 22.7885 158.192 22.8824C158.662 23.1644 159.226 23.6342 161.293 23.6342C163.83 23.6342 165.334 22.6005 166.274 21.2849C167.214 19.9693 167.495 17.9019 166.838 15.6466C166.18 13.4852 164.206 12.0757 161.481 11.9817C160.072 11.9817 157.91 11.9817 156.783 11.9817H156.501C155.467 11.9817 154.151 12.1696 153.493 12.1696C153.306 12.1696 153.306 12.1696 153.212 12.1696V12.3576L153.118 12.6395ZM163.549 21.2849C164.582 20.3452 164.582 18.8416 164.582 17.808C164.488 16.3044 163.83 13.3913 160.447 13.3913C159.602 13.3913 158.004 13.4852 157.91 14.6129C157.91 14.8009 157.91 16.2104 157.91 18.2778V21.6608L158.286 21.8487C158.474 21.9427 158.756 22.1307 159.132 22.1307C160.541 22.4126 162.515 22.1307 163.549 21.1909V21.2849ZM141.935 12.2636C142.217 12.1696 142.405 12.0757 142.405 12.0757C142.405 12.0757 142.781 11.8877 142.875 12.0757C142.875 12.0757 143.062 12.4516 143.438 13.3913C143.438 13.5792 143.626 13.7672 143.626 13.9551C144.096 15.2707 144.848 17.1502 145.224 18.1838C145.6 19.2175 146.352 21.097 146.915 22.6005C147.479 24.0101 148.137 25.7956 148.513 26.6413C148.795 27.4871 149.265 28.2388 149.359 28.4268C149.359 28.4268 149.453 28.6147 149.547 28.7087C149.829 29.0846 150.11 29.6484 150.768 29.7424C150.768 29.7424 151.238 29.7424 151.332 29.9303V30.1183V30.4002C151.332 30.4002 151.332 30.4002 151.332 30.4942H151.144H147.197H144.378C144.378 30.4942 144.284 30.4942 144.19 30.4942C144.096 30.4942 144.19 30.3062 144.19 30.3062V30.1183C144.19 30.1183 144.19 29.9303 144.19 29.8363C144.284 29.7424 144.754 29.6484 144.754 29.6484C145.6 29.6484 145.976 28.8966 146.07 28.5208C146.258 28.1449 146.164 27.8629 145.318 25.8895C144.754 24.5739 144.566 24.198 144.472 24.1041C144.378 24.1041 142.875 24.1041 141.277 24.1041H138.176L137.988 24.6679C137.424 26.1714 136.954 27.581 136.954 27.9569C136.766 28.7087 136.954 29.6484 138.176 29.8363C138.176 29.8363 138.646 29.8364 138.74 30.0243C138.834 30.0243 138.928 30.3062 138.928 30.3062V30.4942C138.928 30.4942 138.928 30.5881 138.834 30.6821H138.552H132.819C132.819 30.6821 132.725 30.6821 132.632 30.6821C132.538 30.6821 132.538 30.4942 132.538 30.4942V30.3062C132.538 30.3062 132.538 30.2122 132.725 30.0243C132.913 29.8364 133.289 29.8363 133.289 29.8363C134.041 29.7424 134.511 28.8966 134.793 28.4268C134.793 28.4268 134.793 28.4268 134.793 28.3328C134.887 28.1449 135.357 27.1112 135.827 25.9835C136.296 24.8558 136.766 23.5402 136.954 23.1643C137.518 21.7548 138.082 20.4392 138.928 18.3718C139.398 17.2441 140.055 15.5526 140.431 14.6129L141.089 12.9214L142.029 12.4516L141.935 12.2636ZM141.747 16.3044C141.935 16.6803 142.123 17.2441 142.217 17.526C142.311 17.808 142.687 18.6537 142.969 19.4055C143.25 20.1572 143.626 21.003 143.814 21.3789C144.002 21.7548 144.096 22.0367 144.096 22.0367C144.096 22.0367 142.969 22.0367 141.559 22.0367C140.149 22.0367 139.022 22.0367 139.022 22.0367C139.022 22.0367 139.022 21.8487 139.116 21.6608C139.21 21.3789 139.773 19.8753 140.901 16.6803C141.089 16.2104 141.277 15.7406 141.277 15.6466C141.277 15.5526 141.465 15.6466 141.747 16.3044Z" fill="#1D1D1B"/>
</svg>
